<svg id="etani" version="1.1" xmlns="http://www.w3.org/2000/svg" xmlns:svg="http://www.w3.org/2000/svg" width="480" height="480" rfm="repeat"> <defs mode="0" rotatestep="1" rotatestart="0" stepvalue="60" snapto="1" displaywait="1">   <g id="tile0" frontfill="#c40104" backfill="#2691c0"><path d="M 10.392,-18 L 41.569,0 L 41.569,36 L 10.392,18 L -20.785,36 L -51.962,18 L -20.785,0 L -20.785,-36 L 10.392,-54 Z"/>
<animateTransform attributeName="transform" attributeType="XML" repeatCount="indefinite" dur="12s" type="rotate" values="0;120;120;120;120;0;0;0;0"/>
</g><g id="tile1" frontfill="#fffb47" backfill="#2691c0"><path d="M 20.784,0 L 20.785,36 L -10.392,54 L -10.392,18 L -41.569,0 L -41.569,-36 L -10.393,-18 L 20.784,-36 L 51.961,-18 Z"/>
<animateTransform attributeName="transform" attributeType="XML" repeatCount="indefinite" dur="12s" type="rotate" values="0;0;0;120;120;120;120;0;0"/>
</g></defs> <g class="etdrop" stroke="none" stroke-linejoin="round" transform="translate(0,0) scale(1.05,1.05)" id="etanidrop"><g class="etboard">

<path d="M 0,0 L 0,480 L 480,480 L 480,0 Z" stroke="none" fill="#fffb47">

<animate attributeName="fill" repeatCount="indefinite" dur="12s" values="#fffb47;#fffb47;#fffb47;#fffb47;#c40104;#c40104;#c40104;#fffb47;#fffb47;#fffb47;#fffb47;#fffb47;#c40104;#c40104;#c40104;#fffb47;#fffb47"/>

</path>

</g><g>

<use href="#tile0" fill="#c40104" transform="translate(0,0) scale(1,1) rotate(0)" class="tiledropped"/><use href="#tile0" fill="#c40104" transform="translate(62.354,-72) scale(1,1) rotate(0)" class="tiledropped"/><use href="#tile0" fill="#c40104" transform="translate(155.885,-54) scale(1,1) rotate(0)" class="tiledropped"/><use href="#tile0" fill="#c40104" transform="translate(249.416,-36) scale(1,1) rotate(0)" class="tiledropped"/><use href="#tile0" fill="#c40104" transform="translate(342.947,-18) scale(1,1) rotate(0)" class="tiledropped"/><use href="#tile0" fill="#c40104" transform="translate(436.478,0) scale(1,1) rotate(0)" class="tiledropped"/><use href="#tile0" fill="#c40104" transform="translate(530.009,18) scale(1,1) rotate(0)" class="tiledropped"/><use href="#tile0" fill="#c40104" transform="translate(93.531,18) scale(1,1) rotate(0)" class="tiledropped"/><use href="#tile0" fill="#c40104" transform="translate(187.062,36) scale(1,1) rotate(0)" class="tiledropped"/><use href="#tile0" fill="#c40104" transform="translate(280.593,54) scale(1,1) rotate(0)" class="tiledropped"/><use href="#tile0" fill="#c40104" transform="translate(374.124,72) scale(1,1) rotate(0)" class="tiledropped"/><use href="#tile0" fill="#c40104" transform="translate(467.655,90) scale(1,1) rotate(0)" class="tiledropped"/><use href="#tile0" fill="#c40104" transform="translate(-62.354,72) scale(1,1) rotate(0)" class="tiledropped"/><use href="#tile0" fill="#c40104" transform="translate(31.177,90) scale(1,1) rotate(0)" class="tiledropped"/><use href="#tile0" fill="#c40104" transform="translate(124.708,108) scale(1,1) rotate(0)" class="tiledropped"/><use href="#tile0" fill="#c40104" transform="translate(218.239,126) scale(1,1) rotate(0)" class="tiledropped"/><use href="#tile0" fill="#c40104" transform="translate(311.77,144) scale(1,1) rotate(0)" class="tiledropped"/><use href="#tile0" fill="#c40104" transform="translate(405.301,162) scale(1,1) rotate(0)" class="tiledropped"/><use href="#tile0" fill="#c40104" transform="translate(498.832,180) scale(1,1) rotate(0)" class="tiledropped"/><use href="#tile0" fill="#c40104" transform="translate(-31.177,162) scale(1,1) rotate(0)" class="tiledropped"/><use href="#tile0" fill="#c40104" transform="translate(62.354,180) scale(1,1) rotate(0)" class="tiledropped"/><use href="#tile0" fill="#c40104" transform="translate(155.885,198) scale(1,1) rotate(0)" class="tiledropped"/><use href="#tile0" fill="#c40104" transform="translate(249.416,216) scale(1,1) rotate(0)" class="tiledropped"/><use href="#tile0" fill="#c40104" transform="translate(342.947,234) scale(1,1) rotate(0)" class="tiledropped"/><use href="#tile0" fill="#c40104" transform="translate(436.478,252) scale(1,1) rotate(0)" class="tiledropped"/><use href="#tile0" fill="#c40104" transform="translate(530.009,270) scale(1,1) rotate(0)" class="tiledropped"/><use href="#tile0" fill="#c40104" transform="translate(0,252) scale(1,1) rotate(0)" class="tiledropped"/><use href="#tile0" fill="#c40104" transform="translate(93.531,270) scale(1,1) rotate(0)" class="tiledropped"/><use href="#tile0" fill="#c40104" transform="translate(187.062,288) scale(1,1) rotate(0)" class="tiledropped"/><use href="#tile0" fill="#c40104" transform="translate(280.593,306) scale(1,1) rotate(0)" class="tiledropped"/><use href="#tile0" fill="#c40104" transform="translate(374.124,324) scale(1,1) rotate(0)" class="tiledropped"/><use href="#tile0" fill="#c40104" transform="translate(467.655,342) scale(1,1) rotate(0)" class="tiledropped"/><use href="#tile0" fill="#c40104" transform="translate(-62.354,324) scale(1,1) rotate(0)" class="tiledropped"/><use href="#tile0" fill="#c40104" transform="translate(31.177,342) scale(1,1) rotate(0)" class="tiledropped"/><use href="#tile0" fill="#c40104" transform="translate(124.708,360) scale(1,1) rotate(0)" class="tiledropped"/><use href="#tile0" fill="#c40104" transform="translate(218.239,378) scale(1,1) rotate(0)" class="tiledropped"/><use href="#tile0" fill="#c40104" transform="translate(311.77,396) scale(1,1) rotate(0)" class="tiledropped"/><use href="#tile0" fill="#c40104" transform="translate(405.301,414) scale(1,1) rotate(0)" class="tiledropped"/><use href="#tile0" fill="#c40104" transform="translate(498.832,432) scale(1,1) rotate(0)" class="tiledropped"/><use href="#tile0" fill="#c40104" transform="translate(-31.177,414) scale(1,1) rotate(0)" class="tiledropped"/><use href="#tile0" fill="#c40104" transform="translate(62.354,432) scale(1,1) rotate(0)" class="tiledropped"/><use href="#tile0" fill="#c40104" transform="translate(155.885,450) scale(1,1) rotate(0)" class="tiledropped"/><use href="#tile0" fill="#c40104" transform="translate(249.416,468) scale(1,1) rotate(0)" class="tiledropped"/><use href="#tile0" fill="#c40104" transform="translate(342.947,486) scale(1,1) rotate(0)" class="tiledropped"/><use href="#tile0" fill="#c40104" transform="translate(436.478,504) scale(1,1) rotate(0)" class="tiledropped"/><use href="#tile0" fill="#c40104" transform="translate(0,504) scale(1,1) rotate(0)" class="tiledropped"/><use href="#tile0" fill="#c40104" transform="translate(93.531,522) scale(1,1) rotate(0)" class="tiledropped"/><use href="#tile0" fill="#c40104" transform="translate(187.062,540) scale(1,1) rotate(0)" class="tiledropped"/>

</g><g>

<use href="#tile1" fill="#fffb47" transform="translate(51.961,-18) scale(1,1) rotate(0)" class="tiledropped"/><use href="#tile1" fill="#fffb47" transform="translate(145.492,0) scale(1,1) rotate(0)" class="tiledropped"/><use href="#tile1" fill="#fffb47" transform="translate(239.023,18) scale(1,1) rotate(0)" class="tiledropped"/><use href="#tile1" fill="#fffb47" transform="translate(332.554,36) scale(1,1) rotate(0)" class="tiledropped"/><use href="#tile1" fill="#fffb47" transform="translate(426.085,54) scale(1,1) rotate(0)" class="tiledropped"/><use href="#tile1" fill="#fffb47" transform="translate(519.616,72) scale(1,1) rotate(0)" class="tiledropped"/><use href="#tile1" fill="#fffb47" transform="translate(-10.392,54) scale(1,1) rotate(0)" class="tiledropped"/><use href="#tile1" fill="#fffb47" transform="translate(83.138,72) scale(1,1) rotate(0)" class="tiledropped"/><use href="#tile1" fill="#fffb47" transform="translate(176.669,90) scale(1,1) rotate(0)" class="tiledropped"/><use href="#tile1" fill="#fffb47" transform="translate(270.2,108) scale(1,1) rotate(0)" class="tiledropped"/><use href="#tile1" fill="#fffb47" transform="translate(363.731,126) scale(1,1) rotate(0)" class="tiledropped"/><use href="#tile1" fill="#fffb47" transform="translate(457.262,144) scale(1,1) rotate(0)" class="tiledropped"/><use href="#tile1" fill="#fffb47" transform="translate(20.784,144) scale(1,1) rotate(0)" class="tiledropped"/><use href="#tile1" fill="#fffb47" transform="translate(114.315,162) scale(1,1) rotate(0)" class="tiledropped"/><use href="#tile1" fill="#fffb47" transform="translate(207.846,180) scale(1,1) rotate(0)" class="tiledropped"/><use href="#tile1" fill="#fffb47" transform="translate(301.377,198) scale(1,1) rotate(0)" class="tiledropped"/><use href="#tile1" fill="#fffb47" transform="translate(394.908,216) scale(1,1) rotate(0)" class="tiledropped"/><use href="#tile1" fill="#fffb47" transform="translate(488.439,234) scale(1,1) rotate(0)" class="tiledropped"/><use href="#tile1" fill="#fffb47" transform="translate(-41.569,216) scale(1,1) rotate(0)" class="tiledropped"/><use href="#tile1" fill="#fffb47" transform="translate(51.961,234) scale(1,1) rotate(0)" class="tiledropped"/><use href="#tile1" fill="#fffb47" transform="translate(145.492,252) scale(1,1) rotate(0)" class="tiledropped"/><use href="#tile1" fill="#fffb47" transform="translate(239.023,270) scale(1,1) rotate(0)" class="tiledropped"/><use href="#tile1" fill="#fffb47" transform="translate(332.554,288) scale(1,1) rotate(0)" class="tiledropped"/><use href="#tile1" fill="#fffb47" transform="translate(426.085,306) scale(1,1) rotate(0)" class="tiledropped"/><use href="#tile1" fill="#fffb47" transform="translate(519.616,324) scale(1,1) rotate(0)" class="tiledropped"/><use href="#tile1" fill="#fffb47" transform="translate(-10.392,306) scale(1,1) rotate(0)" class="tiledropped"/><use href="#tile1" fill="#fffb47" transform="translate(83.138,324) scale(1,1) rotate(0)" class="tiledropped"/><use href="#tile1" fill="#fffb47" transform="translate(176.669,342) scale(1,1) rotate(0)" class="tiledropped"/><use href="#tile1" fill="#fffb47" transform="translate(270.2,360) scale(1,1) rotate(0)" class="tiledropped"/><use href="#tile1" fill="#fffb47" transform="translate(363.731,378) scale(1,1) rotate(0)" class="tiledropped"/><use href="#tile1" fill="#fffb47" transform="translate(457.262,396) scale(1,1) rotate(0)" class="tiledropped"/><use href="#tile1" fill="#fffb47" transform="translate(20.784,396) scale(1,1) rotate(0)" class="tiledropped"/><use href="#tile1" fill="#fffb47" transform="translate(114.315,414) scale(1,1) rotate(0)" class="tiledropped"/><use href="#tile1" fill="#fffb47" transform="translate(207.846,432) scale(1,1) rotate(0)" class="tiledropped"/><use href="#tile1" fill="#fffb47" transform="translate(301.377,450) scale(1,1) rotate(0)" class="tiledropped"/><use href="#tile1" fill="#fffb47" transform="translate(394.908,468) scale(1,1) rotate(0)" class="tiledropped"/><use href="#tile1" fill="#fffb47" transform="translate(488.439,486) scale(1,1) rotate(0)" class="tiledropped"/><use href="#tile1" fill="#fffb47" transform="translate(-41.569,468) scale(1,1) rotate(0)" class="tiledropped"/><use href="#tile1" fill="#fffb47" transform="translate(51.961,486) scale(1,1) rotate(0)" class="tiledropped"/><use href="#tile1" fill="#fffb47" transform="translate(145.492,504) scale(1,1) rotate(0)" class="tiledropped"/><use href="#tile1" fill="#fffb47" transform="translate(239.023,522) scale(1,1) rotate(0)" class="tiledropped"/><use href="#tile1" fill="#fffb47" transform="translate(394.908,-36) scale(1,1) rotate(0)" class="tiledropped"/><use href="#tile1" fill="#fffb47" transform="translate(488.439,-18) scale(1,1) rotate(0)" class="tiledropped"/><use href="#tile1" fill="#fffb47" transform="translate(301.377,-54) scale(1,1) rotate(0)" class="tiledropped"/><use href="#tile1" fill="#fffb47" transform="translate(207.846,-72) scale(1,1) rotate(0)" class="tiledropped"/><use href="#tile1" fill="#fffb47" transform="translate(114.315,-90) scale(1,1) rotate(0)" class="tiledropped"/>

<animate attributeName="opacity" repeatCount="indefinite" dur="12s" values="0;0;0;1;1;1;1;1;0;0;0;1;1;1;1;1;0"/>
</g>
</g></svg>