<svg xmlns="http://www.w3.org/2000/svg" xml:space="preserve" viewBox="0 0 500 500"><path fill="#fff" d="M0 0h500v500H0z" paint-order="stroke fill markers"/><path d="M59.33 96.89c.75 13.35 1.39 26.73 7.72 38.8q-.36.32-.7.67c-11.16-9.3-23.86-16.98-49.55-12.74.37 11.12 27.56 22.1 27.31 29.83 0 0-30.5 44.2-35.58 67.19 12.16-4.68 44.7-8.83 76.7-1.89 11.4 15.52 21.8 33.03 26.62 52.13-13.99 31.82-28.7 63.91-41.8 95.9 7.5-6.31 11.25-9.07 16.7-5.12 4.48 2.97 6.18 6.07 8.23 13.86 4.54-9.33 8.75-18.08 12.91-23.85 12.32-11.03 17.38-49.25 37.84-38.19-5.03 26.54-10.66 53.46-13.49 80.16 2.9 6.8 10.14-19.06 18.43-15.23 5.98 2.76 11.72 16.22 18.17 21.77q5.12-30.38 10.41-60.73c51.5-24.24 148.56-23.96 190.98-6.14A5777 5777 0 0 0 414.3 416c1.95-7.1 1.03-13.67 4.06-20.26 3.97-4.3 13.68 2.67 17.13 9.1-8.8-32.21-12.68-66.27-18.47-99.48 30.85 44.67 43.82 68.36 47.56 71.55-.7-8.03-1.4-27.78 1.61-30.81 4.47-4.51 18.94 5.67 27.9 6.76a4156 4156 0 0 0-31.49-54.89c-28.13-37.4-18.51-90.3-22.4-109.71 16.13 21.52 24.24 33.5 33.97 62.48-.23 5.87 5.16 19.3 7 24.52 7.37 1.95 10.3-1.42 12.4-5.81-.41-2.38-5.04-17.73-9.7-21.56-7.66-22.18-25.03-57.32-36.8-70.3-44.06-42.88-95.94-50.63-150.86-51.85s-87.82 18.48-140.38 43.77c-9.71 2.75-15.06-6-19.1-13.1 10.18-.65 16.7-3.51 22.12-7.38s31-19.42 26.64-21.83c-23.06 3.54-39.91 3.9-61.7 12.44q-.7-.8-2.47-1.9c3.73-10.99 5.1-25.63 6.1-36.03-6.46 9.04-12.93 22.4-20.96 29.93-7.38-2.1-16.07-3.46-24.03-2.46-9.55-10.15-16.51-21.16-23.1-32.3m261.41 49.76q.27.01.34.08v.03c-.03.1-.34.25-1.14.46.32.12.87.24 1.74.37 5.86.89 7.33 28.35 19.87 19.09s23.03.63 29.04 11.96c6.02 11.33-6.7 18.17-15.46 14.98s-8.74 10.83-20.67 7.13-31.33-16.99-34.6-30.88c-3.29-13.88 14.49-21.28 19.56-22.51l.52-.14c-1-.35.17-.59.8-.57M86.35 153.2a16.67 16.67 0 0 1 16.68 16.67 16.67 16.67 0 0 1-16.68 16.68 16.67 16.67 0 0 1-16.67-16.68 16.67 16.67 0 0 1 16.67-16.67m143 9.19q2.1-.02 4.1 1.54c10.59 8.44 13 11.38 23.56 15.39s-2.03 19.86-10.52 24.2-27.01 6.88-32.42-6.45c-4.73-11.67 5.54-34.75 15.28-34.68m67.06 41.15c13.28-.03 31.13 14.8 33.27 22.3 2.98 10.44-9.68 2.19-8.5 11.87 1.19 9.69 5.68 35.26-12.27 41.29-17.96 6.03-40.4-7.83-54.67-19.5-18.25-18.18 20.73-26.84 29.9-47.78 2.58-5.89 7.08-8.17 12.27-8.18M44.34 219.9c-12.96.35-25.62 2.5-37.83 7.37-1.96 16.9 1.13 31.78 4.94 37.6s19.35 13.42 32.3 13.71c12.96.29 16.55-3.13 19.72-6.96 3.17-3.82 14.57-30.4 20.5-48.26-13.42-2.36-26.67-3.81-39.63-3.46m338.8 5.19c1.9-.07 4.05.12 6.59.58 10.15 1.83 14 14.5 10.86 28.5-3.13 14-32.54 19.5-41.3 7.37-8.74-12.13 3.25-22.96 9.8-29.13 4.9-4.62 8.35-7.13 14.05-7.32m-185.08 1.47c2.77-.13 4.92 1.16 5.95 5.16 3 11.6 4.26 26.64 12.68 30.96s1.28 7.61-6.68 10.51-23.57-6.21-30.9-13.44c-7.31-7.22-10.58-22.75-.54-25.6 6.6-1.88 14.2-7.34 19.49-7.6M25.19 245.53a5.78 6.8 0 0 1 5.78 6.8 5.78 6.8 0 0 1-5.78 6.8 5.78 6.8 0 0 1-5.78-6.8 5.78 6.8 0 0 1 5.78-6.8m22.45 3.85a6.23 7.7 0 0 1 6.23 7.71 6.23 7.7 0 0 1-6.23 7.7 6.23 7.7 0 0 1-6.24-7.7 6.23 7.7 0 0 1 6.24-7.7m233.61 76.87c-12.12.25-23.4 1.46-32.16 3.98-9.64 3.01 2.68 7.22 5.94 10.93 10.01 4.38 2.12 15.58 3.07 23.56 2.05 4.7 2.89 19.37 9.38 11.3 7.12-5.54 14.77-12.23 24.54-9.93 5.07 5.04 5.13 15.78 8.44 22.99.07 8.3 7.7 4.67 12.63 3.9l18.16-26.74c6.74-2.38 10.65 9.25 17.44 9.55 11.56 4.55 4.48-10.37 6.13-16.11 3.44-6 10.38-12.1 13.52-18.5-6.72-7.72-50.71-15.68-87.09-14.93"/></svg>