<?xml version="1.0" encoding="UTF-8" standalone="no"?>
<!-- Created with Inkscape (http://www.inkscape.org/) -->

<svg
   xmlns:dc="http://purl.org/dc/elements/1.1/"
   xmlns:cc="http://creativecommons.org/ns#"
   xmlns:rdf="http://www.w3.org/1999/02/22-rdf-syntax-ns#"
   xmlns:svg="http://www.w3.org/2000/svg"
   xmlns="http://www.w3.org/2000/svg"
   xmlns:sodipodi="http://sodipodi.sourceforge.net/DTD/sodipodi-0.dtd"
   xmlns:inkscape="http://www.inkscape.org/namespaces/inkscape"
   width="640mm"
   height="640mm"
   viewBox="0 0 2267.7165 2267.7165"
   id="svg3635"
   version="1.1"
   inkscape:version="0.91 r13725"
   sodipodi:docname="pattern3.svg">
  <defs
     id="defs3637" />
  <sodipodi:namedview
     id="base"
     pagecolor="#ffffff"
     bordercolor="#666666"
     borderopacity="1.0"
     inkscape:pageopacity="0.0"
     inkscape:pageshadow="2"
     inkscape:zoom="0.12374369"
     inkscape:cx="1231.7154"
     inkscape:cy="1096.7154"
     inkscape:document-units="mm"
     inkscape:current-layer="layer1"
     showgrid="false"
     fit-margin-top="0"
     fit-margin-left="0"
     fit-margin-right="0"
     fit-margin-bottom="0"
     inkscape:window-width="1024"
     inkscape:window-height="538"
     inkscape:window-x="-8"
     inkscape:window-y="-8"
     inkscape:window-maximized="1" />
  <metadata
     id="metadata3640">
    <rdf:RDF>
      <cc:Work
         rdf:about="">
        <dc:format>image/svg+xml</dc:format>
        <dc:type
           rdf:resource="http://purl.org/dc/dcmitype/StillImage" />
        <dc:title></dc:title>
      </cc:Work>
    </rdf:RDF>
  </metadata>
  <g
     inkscape:label="Layer 1"
     inkscape:groupmode="layer"
     id="layer1"
     transform="translate(856.71544,638.63893)">
    <g
       transform="matrix(3.7795276,0,0,3.7795276,4790.8535,-166.47646)"
       id="g71200">
      <g
         inkscape:export-ydpi="71.559998"
         inkscape:export-xdpi="71.559998"
         inkscape:export-filename="D:\xLAUNCH\InkscapePortable\Data\settings\g60779-3.png"
         transform="translate(-1494.2526,-124.92632)"
         id="g60779-3">
        <path
           inkscape:export-ydpi="71.559998"
           inkscape:export-xdpi="71.559998"
           inkscape:export-filename="D:\BU do USB\GRAPHICSBaking BackUp New (I) MAM\zzz zOpenClipart\path8842-9.png"
           d="m 150,150 -37.70425,0 C 111.9811,129.66278 95.41154,113.26954 75,113.26954 54.58846,113.26954 38.016731,129.66332 37.704251,150 L 0,150 m 150,0 0,-37.70425 C 129.66278,111.9811 113.26954,95.41154 113.26954,75 113.26954,54.589002 129.66278,38.016731 150,37.704251 L 150,0 m 0,0 -37.70425,0 C 111.9811,20.337218 95.410998,36.730465 75,36.730465 54.58846,36.730465 38.016731,20.337218 37.704251,0 L 0,0 M 0,150 0,112.29575 C 20.337218,111.9811 36.730465,95.41154 36.730465,75 36.730465,54.589002 20.337218,38.016731 0,37.704251 L 0,0 150,150"
           style="fill:#41a9e6;fill-opacity:1;fill-rule:nonzero;stroke:none;stroke-width:3.06210995;stroke-linecap:round;stroke-linejoin:round;stroke-miterlimit:4;stroke-dasharray:none;stroke-dashoffset:0;stroke-opacity:1"
           id="path8895-3-2-8-4-1"
           inkscape:connector-curvature="0">
          <title
             id="title8893-3-4-3-1-2">Dingbat 06</title>
        </path>
      </g>
      <g
         inkscape:export-ydpi="71.559998"
         inkscape:export-xdpi="71.559998"
         inkscape:export-filename="D:\xLAUNCH\InkscapePortable\Data\settings\g60779-3.png"
         transform="translate(-1344.2526,-124.92632)"
         id="g60779-5-45">
        <path
           inkscape:export-ydpi="71.559998"
           inkscape:export-xdpi="71.559998"
           inkscape:export-filename="D:\BU do USB\GRAPHICSBaking BackUp New (I) MAM\zzz zOpenClipart\path8842-9.png"
           d="m 150,150 -37.70425,0 C 111.9811,129.66278 95.41154,113.26954 75,113.26954 54.58846,113.26954 38.016731,129.66332 37.704251,150 L 0,150 m 150,0 0,-37.70425 C 129.66278,111.9811 113.26954,95.41154 113.26954,75 113.26954,54.589002 129.66278,38.016731 150,37.704251 L 150,0 m 0,0 -37.70425,0 C 111.9811,20.337218 95.410998,36.730465 75,36.730465 54.58846,36.730465 38.016731,20.337218 37.704251,0 L 0,0 M 0,150 0,112.29575 C 20.337218,111.9811 36.730465,95.41154 36.730465,75 36.730465,54.589002 20.337218,38.016731 0,37.704251 L 0,0 150,150"
           style="fill:#41a9e6;fill-opacity:1;fill-rule:nonzero;stroke:none;stroke-width:3.06210995;stroke-linecap:round;stroke-linejoin:round;stroke-miterlimit:4;stroke-dasharray:none;stroke-dashoffset:0;stroke-opacity:1"
           id="path8895-3-2-8-4-6-8"
           inkscape:connector-curvature="0">
          <title
             id="title8893-3-4-3-1-8-09">Dingbat 06</title>
        </path>
      </g>
      <g
         inkscape:export-ydpi="71.559998"
         inkscape:export-xdpi="71.559998"
         inkscape:export-filename="D:\xLAUNCH\InkscapePortable\Data\settings\g60779-3.png"
         transform="translate(-1194.2526,-124.92632)"
         id="g60779-51-6">
        <path
           inkscape:export-ydpi="71.559998"
           inkscape:export-xdpi="71.559998"
           inkscape:export-filename="D:\BU do USB\GRAPHICSBaking BackUp New (I) MAM\zzz zOpenClipart\path8842-9.png"
           d="m 150,150 -37.70425,0 C 111.9811,129.66278 95.41154,113.26954 75,113.26954 54.58846,113.26954 38.016731,129.66332 37.704251,150 L 0,150 m 150,0 0,-37.70425 C 129.66278,111.9811 113.26954,95.41154 113.26954,75 113.26954,54.589002 129.66278,38.016731 150,37.704251 L 150,0 m 0,0 -37.70425,0 C 111.9811,20.337218 95.410998,36.730465 75,36.730465 54.58846,36.730465 38.016731,20.337218 37.704251,0 L 0,0 M 0,150 0,112.29575 C 20.337218,111.9811 36.730465,95.41154 36.730465,75 36.730465,54.589002 20.337218,38.016731 0,37.704251 L 0,0 150,150"
           style="fill:#41a9e6;fill-opacity:1;fill-rule:nonzero;stroke:none;stroke-width:3.06210995;stroke-linecap:round;stroke-linejoin:round;stroke-miterlimit:4;stroke-dasharray:none;stroke-dashoffset:0;stroke-opacity:1"
           id="path8895-3-2-8-4-8-7"
           inkscape:connector-curvature="0">
          <title
             id="title8893-3-4-3-1-9-5">Dingbat 06</title>
        </path>
      </g>
      <g
         inkscape:export-ydpi="71.559998"
         inkscape:export-xdpi="71.559998"
         inkscape:export-filename="D:\xLAUNCH\InkscapePortable\Data\settings\g60779-3.png"
         transform="translate(-1044.2526,-124.92632)"
         id="g60779-5-3-11">
        <path
           inkscape:export-ydpi="71.559998"
           inkscape:export-xdpi="71.559998"
           inkscape:export-filename="D:\BU do USB\GRAPHICSBaking BackUp New (I) MAM\zzz zOpenClipart\path8842-9.png"
           d="m 150,150 -37.70425,0 C 111.9811,129.66278 95.41154,113.26954 75,113.26954 54.58846,113.26954 38.016731,129.66332 37.704251,150 L 0,150 m 150,0 0,-37.70425 C 129.66278,111.9811 113.26954,95.41154 113.26954,75 113.26954,54.589002 129.66278,38.016731 150,37.704251 L 150,0 m 0,0 -37.70425,0 C 111.9811,20.337218 95.410998,36.730465 75,36.730465 54.58846,36.730465 38.016731,20.337218 37.704251,0 L 0,0 M 0,150 0,112.29575 C 20.337218,111.9811 36.730465,95.41154 36.730465,75 36.730465,54.589002 20.337218,38.016731 0,37.704251 L 0,0 150,150"
           style="fill:#41a9e6;fill-opacity:1;fill-rule:nonzero;stroke:none;stroke-width:3.06210995;stroke-linecap:round;stroke-linejoin:round;stroke-miterlimit:4;stroke-dasharray:none;stroke-dashoffset:0;stroke-opacity:1"
           id="path8895-3-2-8-4-6-1-6"
           inkscape:connector-curvature="0">
          <title
             id="title8893-3-4-3-1-8-2-9">Dingbat 06</title>
        </path>
      </g>
      <g
         inkscape:export-ydpi="71.559998"
         inkscape:export-xdpi="71.559998"
         inkscape:export-filename="D:\xLAUNCH\InkscapePortable\Data\settings\g60779-3.png"
         transform="translate(-1494.2526,25.07368)"
         id="g60779-55-4">
        <path
           inkscape:export-ydpi="71.559998"
           inkscape:export-xdpi="71.559998"
           inkscape:export-filename="D:\BU do USB\GRAPHICSBaking BackUp New (I) MAM\zzz zOpenClipart\path8842-9.png"
           d="m 150,150 -37.70425,0 C 111.9811,129.66278 95.41154,113.26954 75,113.26954 54.58846,113.26954 38.016731,129.66332 37.704251,150 L 0,150 m 150,0 0,-37.70425 C 129.66278,111.9811 113.26954,95.41154 113.26954,75 113.26954,54.589002 129.66278,38.016731 150,37.704251 L 150,0 m 0,0 -37.70425,0 C 111.9811,20.337218 95.410998,36.730465 75,36.730465 54.58846,36.730465 38.016731,20.337218 37.704251,0 L 0,0 M 0,150 0,112.29575 C 20.337218,111.9811 36.730465,95.41154 36.730465,75 36.730465,54.589002 20.337218,38.016731 0,37.704251 L 0,0 150,150"
           style="fill:#41a9e6;fill-opacity:1;fill-rule:nonzero;stroke:none;stroke-width:3.06210995;stroke-linecap:round;stroke-linejoin:round;stroke-miterlimit:4;stroke-dasharray:none;stroke-dashoffset:0;stroke-opacity:1"
           id="path8895-3-2-8-4-2-9"
           inkscape:connector-curvature="0">
          <title
             id="title8893-3-4-3-1-3-05">Dingbat 06</title>
        </path>
      </g>
      <g
         inkscape:export-ydpi="71.559998"
         inkscape:export-xdpi="71.559998"
         inkscape:export-filename="D:\xLAUNCH\InkscapePortable\Data\settings\g60779-3.png"
         transform="translate(-1344.2526,25.07368)"
         id="g60779-5-4-91">
        <path
           inkscape:export-ydpi="71.559998"
           inkscape:export-xdpi="71.559998"
           inkscape:export-filename="D:\BU do USB\GRAPHICSBaking BackUp New (I) MAM\zzz zOpenClipart\path8842-9.png"
           d="m 150,150 -37.70425,0 C 111.9811,129.66278 95.41154,113.26954 75,113.26954 54.58846,113.26954 38.016731,129.66332 37.704251,150 L 0,150 m 150,0 0,-37.70425 C 129.66278,111.9811 113.26954,95.41154 113.26954,75 113.26954,54.589002 129.66278,38.016731 150,37.704251 L 150,0 m 0,0 -37.70425,0 C 111.9811,20.337218 95.410998,36.730465 75,36.730465 54.58846,36.730465 38.016731,20.337218 37.704251,0 L 0,0 M 0,150 0,112.29575 C 20.337218,111.9811 36.730465,95.41154 36.730465,75 36.730465,54.589002 20.337218,38.016731 0,37.704251 L 0,0 150,150"
           style="fill:#41a9e6;fill-opacity:1;fill-rule:nonzero;stroke:none;stroke-width:3.06210995;stroke-linecap:round;stroke-linejoin:round;stroke-miterlimit:4;stroke-dasharray:none;stroke-dashoffset:0;stroke-opacity:1"
           id="path8895-3-2-8-4-6-10-5"
           inkscape:connector-curvature="0">
          <title
             id="title8893-3-4-3-1-8-4-2">Dingbat 06</title>
        </path>
      </g>
      <g
         inkscape:export-ydpi="71.559998"
         inkscape:export-xdpi="71.559998"
         inkscape:export-filename="D:\xLAUNCH\InkscapePortable\Data\settings\g60779-3.png"
         transform="translate(-1194.2526,25.07368)"
         id="g60779-51-2-0">
        <path
           inkscape:export-ydpi="71.559998"
           inkscape:export-xdpi="71.559998"
           inkscape:export-filename="D:\BU do USB\GRAPHICSBaking BackUp New (I) MAM\zzz zOpenClipart\path8842-9.png"
           d="m 150,150 -37.70425,0 C 111.9811,129.66278 95.41154,113.26954 75,113.26954 54.58846,113.26954 38.016731,129.66332 37.704251,150 L 0,150 m 150,0 0,-37.70425 C 129.66278,111.9811 113.26954,95.41154 113.26954,75 113.26954,54.589002 129.66278,38.016731 150,37.704251 L 150,0 m 0,0 -37.70425,0 C 111.9811,20.337218 95.410998,36.730465 75,36.730465 54.58846,36.730465 38.016731,20.337218 37.704251,0 L 0,0 M 0,150 0,112.29575 C 20.337218,111.9811 36.730465,95.41154 36.730465,75 36.730465,54.589002 20.337218,38.016731 0,37.704251 L 0,0 150,150"
           style="fill:#41a9e6;fill-opacity:1;fill-rule:nonzero;stroke:none;stroke-width:3.06210995;stroke-linecap:round;stroke-linejoin:round;stroke-miterlimit:4;stroke-dasharray:none;stroke-dashoffset:0;stroke-opacity:1"
           id="path8895-3-2-8-4-8-5-5"
           inkscape:connector-curvature="0">
          <title
             id="title8893-3-4-3-1-9-8-1">Dingbat 06</title>
        </path>
      </g>
      <g
         inkscape:export-ydpi="71.559998"
         inkscape:export-xdpi="71.559998"
         inkscape:export-filename="D:\xLAUNCH\InkscapePortable\Data\settings\g60779-3.png"
         transform="translate(-1044.2526,25.07368)"
         id="g60779-5-3-8-9">
        <path
           inkscape:export-ydpi="71.559998"
           inkscape:export-xdpi="71.559998"
           inkscape:export-filename="D:\BU do USB\GRAPHICSBaking BackUp New (I) MAM\zzz zOpenClipart\path8842-9.png"
           d="m 150,150 -37.70425,0 C 111.9811,129.66278 95.41154,113.26954 75,113.26954 54.58846,113.26954 38.016731,129.66332 37.704251,150 L 0,150 m 150,0 0,-37.70425 C 129.66278,111.9811 113.26954,95.41154 113.26954,75 113.26954,54.589002 129.66278,38.016731 150,37.704251 L 150,0 m 0,0 -37.70425,0 C 111.9811,20.337218 95.410998,36.730465 75,36.730465 54.58846,36.730465 38.016731,20.337218 37.704251,0 L 0,0 M 0,150 0,112.29575 C 20.337218,111.9811 36.730465,95.41154 36.730465,75 36.730465,54.589002 20.337218,38.016731 0,37.704251 L 0,0 150,150"
           style="fill:#41a9e6;fill-opacity:1;fill-rule:nonzero;stroke:none;stroke-width:3.06210995;stroke-linecap:round;stroke-linejoin:round;stroke-miterlimit:4;stroke-dasharray:none;stroke-dashoffset:0;stroke-opacity:1"
           id="path8895-3-2-8-4-6-1-9-4"
           inkscape:connector-curvature="0">
          <title
             id="title8893-3-4-3-1-8-2-2-1">Dingbat 06</title>
        </path>
      </g>
      <g
         inkscape:export-ydpi="71.559998"
         inkscape:export-xdpi="71.559998"
         inkscape:export-filename="D:\xLAUNCH\InkscapePortable\Data\settings\g60779-3.png"
         transform="translate(-1494.2526,175.07368)"
         id="g60779-9-9">
        <path
           inkscape:export-ydpi="71.559998"
           inkscape:export-xdpi="71.559998"
           inkscape:export-filename="D:\BU do USB\GRAPHICSBaking BackUp New (I) MAM\zzz zOpenClipart\path8842-9.png"
           d="m 150,150 -37.70425,0 C 111.9811,129.66278 95.41154,113.26954 75,113.26954 54.58846,113.26954 38.016731,129.66332 37.704251,150 L 0,150 m 150,0 0,-37.70425 C 129.66278,111.9811 113.26954,95.41154 113.26954,75 113.26954,54.589002 129.66278,38.016731 150,37.704251 L 150,0 m 0,0 -37.70425,0 C 111.9811,20.337218 95.410998,36.730465 75,36.730465 54.58846,36.730465 38.016731,20.337218 37.704251,0 L 0,0 M 0,150 0,112.29575 C 20.337218,111.9811 36.730465,95.41154 36.730465,75 36.730465,54.589002 20.337218,38.016731 0,37.704251 L 0,0 150,150"
           style="fill:#41a9e6;fill-opacity:1;fill-rule:nonzero;stroke:none;stroke-width:3.06210995;stroke-linecap:round;stroke-linejoin:round;stroke-miterlimit:4;stroke-dasharray:none;stroke-dashoffset:0;stroke-opacity:1"
           id="path8895-3-2-8-4-3-3"
           inkscape:connector-curvature="0">
          <title
             id="title8893-3-4-3-1-6-7">Dingbat 06</title>
        </path>
      </g>
      <g
         inkscape:export-ydpi="71.559998"
         inkscape:export-xdpi="71.559998"
         inkscape:export-filename="D:\xLAUNCH\InkscapePortable\Data\settings\g60779-3.png"
         transform="translate(-1344.2526,175.07368)"
         id="g60779-5-40-9">
        <path
           inkscape:export-ydpi="71.559998"
           inkscape:export-xdpi="71.559998"
           inkscape:export-filename="D:\BU do USB\GRAPHICSBaking BackUp New (I) MAM\zzz zOpenClipart\path8842-9.png"
           d="m 150,150 -37.70425,0 C 111.9811,129.66278 95.41154,113.26954 75,113.26954 54.58846,113.26954 38.016731,129.66332 37.704251,150 L 0,150 m 150,0 0,-37.70425 C 129.66278,111.9811 113.26954,95.41154 113.26954,75 113.26954,54.589002 129.66278,38.016731 150,37.704251 L 150,0 m 0,0 -37.70425,0 C 111.9811,20.337218 95.410998,36.730465 75,36.730465 54.58846,36.730465 38.016731,20.337218 37.704251,0 L 0,0 M 0,150 0,112.29575 C 20.337218,111.9811 36.730465,95.41154 36.730465,75 36.730465,54.589002 20.337218,38.016731 0,37.704251 L 0,0 150,150"
           style="fill:#41a9e6;fill-opacity:1;fill-rule:nonzero;stroke:none;stroke-width:3.06210995;stroke-linecap:round;stroke-linejoin:round;stroke-miterlimit:4;stroke-dasharray:none;stroke-dashoffset:0;stroke-opacity:1"
           id="path8895-3-2-8-4-6-6-0"
           inkscape:connector-curvature="0">
          <title
             id="title8893-3-4-3-1-8-0-1">Dingbat 06</title>
        </path>
      </g>
      <g
         inkscape:export-ydpi="71.559998"
         inkscape:export-xdpi="71.559998"
         inkscape:export-filename="D:\xLAUNCH\InkscapePortable\Data\settings\g60779-3.png"
         transform="translate(-1194.2526,175.07368)"
         id="g60779-51-3-2">
        <path
           inkscape:export-ydpi="71.559998"
           inkscape:export-xdpi="71.559998"
           inkscape:export-filename="D:\BU do USB\GRAPHICSBaking BackUp New (I) MAM\zzz zOpenClipart\path8842-9.png"
           d="m 150,150 -37.70425,0 C 111.9811,129.66278 95.41154,113.26954 75,113.26954 54.58846,113.26954 38.016731,129.66332 37.704251,150 L 0,150 m 150,0 0,-37.70425 C 129.66278,111.9811 113.26954,95.41154 113.26954,75 113.26954,54.589002 129.66278,38.016731 150,37.704251 L 150,0 m 0,0 -37.70425,0 C 111.9811,20.337218 95.410998,36.730465 75,36.730465 54.58846,36.730465 38.016731,20.337218 37.704251,0 L 0,0 M 0,150 0,112.29575 C 20.337218,111.9811 36.730465,95.41154 36.730465,75 36.730465,54.589002 20.337218,38.016731 0,37.704251 L 0,0 150,150"
           style="fill:#41a9e6;fill-opacity:1;fill-rule:nonzero;stroke:none;stroke-width:3.06210995;stroke-linecap:round;stroke-linejoin:round;stroke-miterlimit:4;stroke-dasharray:none;stroke-dashoffset:0;stroke-opacity:1"
           id="path8895-3-2-8-4-8-8-6"
           inkscape:connector-curvature="0">
          <title
             id="title8893-3-4-3-1-9-88-0">Dingbat 06</title>
        </path>
      </g>
      <g
         inkscape:export-ydpi="71.559998"
         inkscape:export-xdpi="71.559998"
         inkscape:export-filename="D:\xLAUNCH\InkscapePortable\Data\settings\g60779-3.png"
         transform="translate(-1044.2526,175.07368)"
         id="g60779-5-3-1-5">
        <path
           inkscape:export-ydpi="71.559998"
           inkscape:export-xdpi="71.559998"
           inkscape:export-filename="D:\BU do USB\GRAPHICSBaking BackUp New (I) MAM\zzz zOpenClipart\path8842-9.png"
           d="m 150,150 -37.70425,0 C 111.9811,129.66278 95.41154,113.26954 75,113.26954 54.58846,113.26954 38.016731,129.66332 37.704251,150 L 0,150 m 150,0 0,-37.70425 C 129.66278,111.9811 113.26954,95.41154 113.26954,75 113.26954,54.589002 129.66278,38.016731 150,37.704251 L 150,0 m 0,0 -37.70425,0 C 111.9811,20.337218 95.410998,36.730465 75,36.730465 54.58846,36.730465 38.016731,20.337218 37.704251,0 L 0,0 M 0,150 0,112.29575 C 20.337218,111.9811 36.730465,95.41154 36.730465,75 36.730465,54.589002 20.337218,38.016731 0,37.704251 L 0,0 150,150"
           style="fill:#41a9e6;fill-opacity:1;fill-rule:nonzero;stroke:none;stroke-width:3.06210995;stroke-linecap:round;stroke-linejoin:round;stroke-miterlimit:4;stroke-dasharray:none;stroke-dashoffset:0;stroke-opacity:1"
           id="path8895-3-2-8-4-6-1-94-3"
           inkscape:connector-curvature="0">
          <title
             id="title8893-3-4-3-1-8-2-7-1">Dingbat 06</title>
        </path>
      </g>
      <g
         inkscape:export-ydpi="71.559998"
         inkscape:export-xdpi="71.559998"
         inkscape:export-filename="D:\xLAUNCH\InkscapePortable\Data\settings\g60779-3.png"
         transform="translate(-1494.2526,325.07368)"
         id="g60779-55-6-9">
        <path
           inkscape:export-ydpi="71.559998"
           inkscape:export-xdpi="71.559998"
           inkscape:export-filename="D:\BU do USB\GRAPHICSBaking BackUp New (I) MAM\zzz zOpenClipart\path8842-9.png"
           d="m 150,150 -37.70425,0 C 111.9811,129.66278 95.41154,113.26954 75,113.26954 54.58846,113.26954 38.016731,129.66332 37.704251,150 L 0,150 m 150,0 0,-37.70425 C 129.66278,111.9811 113.26954,95.41154 113.26954,75 113.26954,54.589002 129.66278,38.016731 150,37.704251 L 150,0 m 0,0 -37.70425,0 C 111.9811,20.337218 95.410998,36.730465 75,36.730465 54.58846,36.730465 38.016731,20.337218 37.704251,0 L 0,0 M 0,150 0,112.29575 C 20.337218,111.9811 36.730465,95.41154 36.730465,75 36.730465,54.589002 20.337218,38.016731 0,37.704251 L 0,0 150,150"
           style="fill:#41a9e6;fill-opacity:1;fill-rule:nonzero;stroke:none;stroke-width:3.06210995;stroke-linecap:round;stroke-linejoin:round;stroke-miterlimit:4;stroke-dasharray:none;stroke-dashoffset:0;stroke-opacity:1"
           id="path8895-3-2-8-4-2-1-0"
           inkscape:connector-curvature="0">
          <title
             id="title8893-3-4-3-1-3-0-0">Dingbat 06</title>
        </path>
      </g>
      <g
         inkscape:export-ydpi="71.559998"
         inkscape:export-xdpi="71.559998"
         inkscape:export-filename="D:\xLAUNCH\InkscapePortable\Data\settings\g60779-3.png"
         transform="translate(-1344.2526,325.07368)"
         id="g60779-5-4-9-1">
        <path
           inkscape:export-ydpi="71.559998"
           inkscape:export-xdpi="71.559998"
           inkscape:export-filename="D:\BU do USB\GRAPHICSBaking BackUp New (I) MAM\zzz zOpenClipart\path8842-9.png"
           d="m 150,150 -37.70425,0 C 111.9811,129.66278 95.41154,113.26954 75,113.26954 54.58846,113.26954 38.016731,129.66332 37.704251,150 L 0,150 m 150,0 0,-37.70425 C 129.66278,111.9811 113.26954,95.41154 113.26954,75 113.26954,54.589002 129.66278,38.016731 150,37.704251 L 150,0 m 0,0 -37.70425,0 C 111.9811,20.337218 95.410998,36.730465 75,36.730465 54.58846,36.730465 38.016731,20.337218 37.704251,0 L 0,0 M 0,150 0,112.29575 C 20.337218,111.9811 36.730465,95.41154 36.730465,75 36.730465,54.589002 20.337218,38.016731 0,37.704251 L 0,0 150,150"
           style="fill:#41a9e6;fill-opacity:1;fill-rule:nonzero;stroke:none;stroke-width:3.06210995;stroke-linecap:round;stroke-linejoin:round;stroke-miterlimit:4;stroke-dasharray:none;stroke-dashoffset:0;stroke-opacity:1"
           id="path8895-3-2-8-4-6-10-4-3"
           inkscape:connector-curvature="0">
          <title
             id="title8893-3-4-3-1-8-4-4-0">Dingbat 06</title>
        </path>
      </g>
      <g
         inkscape:export-ydpi="71.559998"
         inkscape:export-xdpi="71.559998"
         inkscape:export-filename="D:\xLAUNCH\InkscapePortable\Data\settings\g60779-3.png"
         transform="translate(-1194.2526,325.07368)"
         id="g60779-51-2-1-4">
        <path
           inkscape:export-ydpi="71.559998"
           inkscape:export-xdpi="71.559998"
           inkscape:export-filename="D:\BU do USB\GRAPHICSBaking BackUp New (I) MAM\zzz zOpenClipart\path8842-9.png"
           d="m 150,150 -37.70425,0 C 111.9811,129.66278 95.41154,113.26954 75,113.26954 54.58846,113.26954 38.016731,129.66332 37.704251,150 L 0,150 m 150,0 0,-37.70425 C 129.66278,111.9811 113.26954,95.41154 113.26954,75 113.26954,54.589002 129.66278,38.016731 150,37.704251 L 150,0 m 0,0 -37.70425,0 C 111.9811,20.337218 95.410998,36.730465 75,36.730465 54.58846,36.730465 38.016731,20.337218 37.704251,0 L 0,0 M 0,150 0,112.29575 C 20.337218,111.9811 36.730465,95.41154 36.730465,75 36.730465,54.589002 20.337218,38.016731 0,37.704251 L 0,0 150,150"
           style="fill:#41a9e6;fill-opacity:1;fill-rule:nonzero;stroke:none;stroke-width:3.06210995;stroke-linecap:round;stroke-linejoin:round;stroke-miterlimit:4;stroke-dasharray:none;stroke-dashoffset:0;stroke-opacity:1"
           id="path8895-3-2-8-4-8-5-1-5"
           inkscape:connector-curvature="0">
          <title
             id="title8893-3-4-3-1-9-8-8-6">Dingbat 06</title>
        </path>
      </g>
      <g
         inkscape:export-ydpi="71.559998"
         inkscape:export-xdpi="71.559998"
         inkscape:export-filename="D:\xLAUNCH\InkscapePortable\Data\settings\g60779-3.png"
         transform="translate(-1044.2526,325.07368)"
         id="g60779-5-3-8-2-8">
        <path
           inkscape:export-ydpi="71.559998"
           inkscape:export-xdpi="71.559998"
           inkscape:export-filename="D:\BU do USB\GRAPHICSBaking BackUp New (I) MAM\zzz zOpenClipart\path8842-9.png"
           d="m 150,150 -37.70425,0 C 111.9811,129.66278 95.41154,113.26954 75,113.26954 54.58846,113.26954 38.016731,129.66332 37.704251,150 L 0,150 m 150,0 0,-37.70425 C 129.66278,111.9811 113.26954,95.41154 113.26954,75 113.26954,54.589002 129.66278,38.016731 150,37.704251 L 150,0 m 0,0 -37.70425,0 C 111.9811,20.337218 95.410998,36.730465 75,36.730465 54.58846,36.730465 38.016731,20.337218 37.704251,0 L 0,0 M 0,150 0,112.29575 C 20.337218,111.9811 36.730465,95.41154 36.730465,75 36.730465,54.589002 20.337218,38.016731 0,37.704251 L 0,0 150,150"
           style="fill:#41a9e6;fill-opacity:1;fill-rule:nonzero;stroke:none;stroke-width:3.06210995;stroke-linecap:round;stroke-linejoin:round;stroke-miterlimit:4;stroke-dasharray:none;stroke-dashoffset:0;stroke-opacity:1"
           id="path8895-3-2-8-4-6-1-9-2-4"
           inkscape:connector-curvature="0">
          <title
             id="title8893-3-4-3-1-8-2-2-4-0">Dingbat 06</title>
        </path>
      </g>
    </g>
  </g>
</svg>
