<svg version="1.1" xmlns="http://www.w3.org/2000/svg" xmlns:xlink="http://www.w3.org/1999/xlink" width="246.47904" height="255.81445" viewBox="0,0,246.47904,255.81445"><g transform="translate(-116.76048,-52.21777)"><g data-paper-data="{&quot;isPaintingLayer&quot;:true}" stroke-dasharray="" stroke-dashoffset="0" style="mix-blend-mode: normal"><g fill-rule="nonzero" stroke-width="2.5" stroke-miterlimit="10"><path d="M361.98952,173.48573c0.02228,66.26893 -54.60488,120.01796 -121.99508,120.01796c-67.38575,0 -122.00623,-53.74903 -121.98395,-120.01796c-0.02506,-66.28317 54.5982,-120.01796 121.98395,-120.01796c67.3902,-0.00438 122.01736,53.73479 121.99508,120.01796z" fill="#ffffff" stroke="#000000" stroke-linecap="round" stroke-linejoin="round"/><path d="M361.98952,173.49669c0,66.22511 -54.64943,119.97414 -121.98395,119.97414c-65.44456,0 -118.92516,-50.78061 -121.88372,-114.43164c17.09424,45.97202 62.00879,78.83264 114.64464,78.83264c67.33452,0 121.98395,-53.74903 121.98395,-119.97414c0,-1.8621 -0.05568,-3.73516 -0.13364,-5.5863c4.76665,12.8485 7.37272,26.72664 7.37272,41.18532z" fill-opacity="0.31373" fill="#000000" stroke="none" stroke-linecap="butt" stroke-linejoin="miter"/></g><path d="M282.03946,265.0422c18.07,0 32.73,14.38 32.73,32.1c0,10.07 -14.66,9.38 -32.73,9.38c-18.07,0 -32.74,-0.29 -32.74,-9.38c0,-17.72 14.67,-32.1 32.74,-32.1z" fill="#333333" fill-rule="nonzero" stroke="#000000" stroke-width="3" stroke-linecap="round" stroke-linejoin="round" stroke-miterlimit="10"/><path d="M234.30946,297.1422c0,9.09 -14.67,9.38 -32.74,9.38c-18.07,0 -32.73,0.69 -32.73,-9.38c0,-17.72 14.66,-32.1 32.73,-32.1c18.07,0 32.74,14.38 32.74,32.1z" fill="#333333" fill-rule="nonzero" stroke="#000000" stroke-width="3" stroke-linecap="round" stroke-linejoin="round" stroke-miterlimit="10"/><path d="M188.97946,305.9222c0,-16.37 9.44,-26.44 9.44,-26.44c0,0 -3.77,13.85 -3.14,26.44z" fill-opacity="0.31373" fill="#000000" fill-rule="evenodd" stroke="#000000" stroke-width="3" stroke-linecap="butt" stroke-linejoin="round" stroke-miterlimit="10"/><path d="M241.11946,54.2722c31.57,0 53.22,11.15 66.28,28.75c24.06,-2.58 44.03,23.62 44.03,23.62c0,0 -18.86,9.45 -32.03,1.54c2.4,8.71 3.56,18.1 3.56,27.9c0,45.18 -55.13,81.85 -81.84,81.85c-25.72,0 -81.85,-36.67 -81.85,-81.85c0,-9.8 1.17,-19.19 3.57,-27.9c-13.18,7.91 -32.07,-1.54 -32.07,-1.54c0,0 20,-26.21 44.07,-23.62c12.69,-17.1 33.49,-28.14 63.62,-28.75c0.88,-0.02 1.76,0 2.66,0z" fill="#ffffff" fill-rule="nonzero" stroke="#000000" stroke-width="3" stroke-linecap="round" stroke-linejoin="round" stroke-miterlimit="10"/><path d="M288.32946,305.9222c0.63,-12.59 -3.14,-26.44 -3.14,-26.44c0,0 9.44,10.07 9.44,26.44z" fill-opacity="0.31373" fill="#000000" fill-rule="evenodd" stroke="#000000" stroke-width="3" stroke-linecap="butt" stroke-linejoin="round" stroke-miterlimit="10"/><path d="M322.95946,136.0822c0,45.18 -55.13,81.85 -81.84,81.85c-23.71,0 -73.26,-31.13 -80.88,-71.38c14.97,32.84 55.36,56.59 76.07,56.59c26.71,0 81.84,-36.66 81.84,-81.84c0,-3.17 -0.1,-6.3 -0.34,-9.37l1.87,-2.66c2.21,8.4 3.28,17.42 3.28,26.81z" fill-opacity="0.31373" fill="#000000" fill-rule="nonzero" stroke="none" stroke-width="3" stroke-linecap="butt" stroke-linejoin="miter" stroke-miterlimit="10"/><path d="M257.71946,188.7322c-2.29,3.97 -6.5,5.84 -9.4,4.16c-2.89,-1.67 -3.38,-6.25 -1.09,-10.22c2.29,-3.97 6.5,-5.84 9.4,-4.16c2.89,1.67 3.38,6.24 1.09,10.22z" fill="#000000" fill-rule="nonzero" stroke="none" stroke-width="3" stroke-linecap="butt" stroke-linejoin="miter" stroke-miterlimit="10"/><path d="M226.06946,178.5122c2.9,-1.68 7.11,0.19 9.4,4.16c2.29,3.97 1.8,8.55 -1.09,10.22c-2.9,1.68 -7.11,-0.19 -9.4,-4.16c-2.29,-3.98 -1.8,-8.55 1.09,-10.22z" fill="#000000" fill-rule="nonzero" stroke="none" stroke-width="3" stroke-linecap="butt" stroke-linejoin="miter" stroke-miterlimit="10"/><g fill-rule="nonzero" stroke-width="3" stroke-linecap="round" stroke-linejoin="miter" stroke-miterlimit="4"><path d="M230.574,114.88307c0.00516,15.4987 -9.51172,28.06647 -21.25319,28.06647c-11.74142,0 -21.2583,-12.56777 -21.25314,-28.06647c-0.00516,-15.4987 9.51172,-28.06647 21.25314,-28.06647c11.74147,0 21.25835,12.56777 21.25319,28.06647z" fill="#ffffff" stroke="#000000"/><path d="M296.59676,114.88307c0.00516,15.4987 -9.51172,28.06647 -21.25319,28.06647c-11.74144,0 -21.25829,-12.56777 -21.25313,-28.06647c-0.00516,-15.4987 9.51169,-28.06647 21.25313,-28.06647c11.74147,0 21.25835,12.56777 21.25319,28.06647z" fill="#ffffff" stroke="#000000"/><path d="M217.82208,108.35942c0.00222,5.32032 -2.66273,9.63523 -5.95087,9.63523c-3.28817,0 -5.95312,-4.31491 -5.9509,-9.63523c-0.00222,-5.32032 2.66273,-9.63523 5.9509,-9.63523c3.28814,0 5.95308,4.3149 5.95087,9.63523z" fill="#000000" stroke="none"/><path d="M279.59421,110.90982c0.00221,5.32032 -2.66273,9.63523 -5.95087,9.63523c-3.28817,0 -5.95311,-4.31491 -5.9509,-9.63523c-0.00221,-5.32032 2.66273,-9.63522 5.9509,-9.63522c3.28814,0 5.95308,4.3149 5.95087,9.63522z" fill="#000000" stroke="none"/></g></g></g></svg>