<svg version="1.1" xmlns="http://www.w3.org/2000/svg" xmlns:xlink="http://www.w3.org/1999/xlink" width="489.55686" height="296.4647" viewBox="0,0,489.55686,296.4647"><g transform="translate(4.77844,-31.76765)"><g data-paper-data="{&quot;isPaintingLayer&quot;:true}" fill-rule="nonzero" stroke-dasharray="" stroke-dashoffset="0" style="mix-blend-mode: normal"><path d="M303.56814,169.85732c0,0 -10.3802,46.86811 -1.75184,67.86941c8.62838,21.00129 80.65166,33.21 46.3396,40.65638c-34.31206,7.44637 -60.26886,-15.26316 -81.55971,-33.01294c-21.29085,-17.74978 -30.17526,-60.13844 -30.17526,-60.13844" data-paper-data="{&quot;index&quot;:null}" fill="#654f45" stroke="#000000" stroke-width="2" stroke-linecap="round" stroke-linejoin="miter" stroke-miterlimit="10"/><path d="M448.84014,151.90414c0,53.97024 -82.91332,97.71857 -185.19298,97.71857c-102.29418,0 -185.20748,-43.74831 -185.20748,-97.71857c0,-53.96617 82.91333,-97.71447 185.20749,-97.71447c102.27964,0 185.19298,43.74832 185.19298,97.71447z" data-paper-data="{&quot;index&quot;:null}" fill="#654f45" stroke="#000000" stroke-width="2" stroke-linecap="round" stroke-linejoin="round" stroke-miterlimit="10"/><path d="M107.97792,204.78863c0,0 -54.03597,-46.64114 -59.78438,9.5655c-5.74841,56.20664 53.42459,81.57049 49.02319,95.655c-4.40141,14.08451 -43.04474,-19.131 -43.04474,-19.131c0,0 -26.73447,57.97464 -31.08787,27.50081c-4.3534,-30.47382 -38.5193,-91.70811 -22.71807,-136.30837c15.80123,-44.60026 96.85069,-72.93694 96.85069,-72.93694" data-paper-data="{&quot;index&quot;:null}" fill="#654f45" stroke="#000000" stroke-width="2" stroke-linecap="round" stroke-linejoin="miter" stroke-miterlimit="10"/><path d="M331.83216,152.6062c-18.02383,0 -32.6358,-14.61197 -32.62141,-32.63581c-0.0144,-18.00944 14.59758,-32.63581 32.62141,-32.63581c18.02383,0 32.63581,14.62637 32.62141,32.63581c0.0144,18.02384 -14.59758,32.63581 -32.62141,32.63581z" data-paper-data="{&quot;index&quot;:null}" fill="#ffffff" stroke="#000000" stroke-width="2" stroke-linecap="round" stroke-linejoin="round" stroke-miterlimit="10"/><path d="M339.99473,125.09539c-6.01755,0 -10.8834,-4.86586 -10.8834,-10.8834c0,-6.00314 4.86586,-10.86901 10.8834,-10.86901c6.00314,0 10.86901,4.86586 10.86901,10.86901c0,6.01755 -4.86586,10.8834 -10.86901,10.8834z" data-paper-data="{&quot;index&quot;:null}" fill="#000000" stroke="none" stroke-width="2" stroke-linecap="butt" stroke-linejoin="miter" stroke-miterlimit="10"/><path d="M240.06434,201.40086c0,0 -8.88441,42.38866 -30.17526,60.13844c-21.29084,17.74978 -47.24765,40.45931 -81.55971,33.01293c-34.31206,-7.44637 37.71123,-19.65508 46.3396,-40.65637c8.62838,-21.00129 -1.75184,-67.86941 -1.75184,-67.86941" fill="#654f45" stroke="#000000" stroke-width="2" stroke-linecap="round" stroke-linejoin="miter" stroke-miterlimit="10"/><g stroke-linecap="butt" stroke-linejoin="miter" stroke-miterlimit="10"><g fill="#fffeda" stroke="#000000" stroke-width="2"><path d="M399.26204,87.16608c1.12426,-3.81937 10.44026,-9.01564 13.11174,-8.64813c2.67134,0.36751 28.71156,21.20733 28.34567,24.25958c-0.36554,3.05275 -5.67061,9.56314 -8.72367,9.19786c-3.05275,-0.36554 -34.21307,-19.78681 -32.73441,-24.80926z"/><path d="M409.992,79.28273c1.0119,-3.43744 9.39639,-8.11421 11.80056,-7.78333c2.40421,0.33078 25.84008,19.08622 25.51122,21.8338c-0.329,2.74744 -5.10372,8.60694 -7.85088,8.27765c-2.74744,-0.329 -30.79148,-17.80785 -29.46083,-22.32819z"/><path d="M420.56073,71.2609c0.91072,-3.09368 8.45654,-7.30257 10.62074,-7.00519c2.16383,0.29773 23.25622,17.17773 22.96016,19.65049c-0.29613,2.47269 -4.59333,7.74621 -7.06621,7.45031c-2.47269,-0.29613 -27.71245,-16.02722 -26.51516,-20.09581z"/><path d="M429.72564,64.40305c0.81962,-2.78427 7.61152,-6.57296 9.5586,-6.30473c1.94744,0.26788 20.93081,15.46017 20.6643,17.68557c-0.26651,2.2254 -4.13397,6.97159 -6.35945,6.70513c-2.2254,-0.26651 -24.9413,-14.42454 -23.8631,-18.08564z"/><path d="M437.62165,58.58565c0.7377,-2.50588 6.85008,-5.91538 8.60238,-5.67391c1.75271,0.24117 18.83787,13.91429 18.59772,15.91689c-0.23987,2.00288 -3.72059,6.27442 -5.72352,6.03463c-2.00288,-0.23987 -22.44676,-12.98165 -21.47698,-16.27731z"/><path d="M444.3703,53.7001c0.6639,-2.25532 6.16508,-5.32383 7.74249,-5.10673c1.57741,0.217 16.95384,12.52269 16.73831,14.32554c-0.21588,1.80264 -3.3485,5.64698 -5.15113,5.43111c-1.80262,-0.21587 -20.20251,-11.68391 -19.32967,-14.6499z"/><path d="M451.503,48.24169c0.59754,-2.02976 5.54855,-4.79143 6.96823,-4.59607c1.41965,0.19529 15.2584,11.27033 15.06408,12.89254c-0.19433,1.62235 -3.01371,5.08224 -4.63607,4.88805c-1.62235,-0.19433 -18.1821,-10.5154 -17.39624,-13.18452z"/><path d="M457.71402,43.54397c0.53775,-1.82681 4.99366,-4.31226 6.27141,-4.13651c1.27771,0.17579 13.73276,10.14352 13.5581,11.6037c-0.17486,1.46012 -2.71228,4.5741 -4.17241,4.39921c-1.46013,-0.17485 -16.36389,-9.46386 -15.65656,-11.86599z"/><path d="M463.08566,39.52376c0.48396,-1.64411 4.49435,-3.88108 5.64422,-3.72286c1.14993,0.15822 12.35924,9.12885 12.20221,10.44327c-0.15736,1.31409 -2.44107,4.11668 -3.75516,3.95927c-1.31411,-0.15735 -14.72738,-8.5173 -14.09129,-10.67971z"/><path d="M467.71523,36.12541c0.43556,-1.4797 4.04491,-3.49298 5.07982,-3.35061c1.03494,0.14238 11.12371,8.21642 10.9819,9.39889c-0.14163,1.18269 -2.19698,3.705 -3.37969,3.56338c-1.18269,-0.14162 -13.25458,-7.6655 -12.68199,-9.61162z"/></g><g fill="none" stroke="none" stroke-width="1" font-family="sans-serif" font-weight="normal" font-size="12" text-anchor="start"/></g><path d="M445.35626,170.12512c-19.72213,9.78024 -87.54809,2.62841 -84.27154,-1.86977" fill="none" stroke="#000000" stroke-width="2.5" stroke-linecap="round" stroke-linejoin="bevel" stroke-miterlimit="4"/></g></g></svg>